<svg viewBox="0 0 32 32" xml:space="preserve" xmlns="http://www.w3.org/2000/svg" fill-rule="evenodd" clip-rule="evenodd" stroke-linejoin="round" stroke-miterlimit="2"><path d="M11.868 24.773H3.834a2.11 2.11 0 0 1-2.107-2.108V4.335a2.11 2.11 0 0 1 2.107-2.108h24.332a2.11 2.11 0 0 1 2.107 2.108v18.33a2.11 2.11 0 0 1-2.107 2.108h-8.034l-3.918 4.896a.27.27 0 0 1-.214.103.27.27 0 0 1-.214-.103l-3.918-4.896ZM16 29.064l3.787-4.735c.052-.065.13-.101.213-.101h8.166c.861 0 1.561-.7 1.561-1.563V4.335c0-.863-.7-1.563-1.561-1.563H3.834c-.861 0-1.561.7-1.561 1.563v18.33c0 .863.7 1.563 1.561 1.563H12c.084 0 .16.036.213.1L16 29.065Z" fill="#bdb6b6" class="fill-000000"></path><path d="M20 5.772h6a.272.272 0 0 0 0-.544h-6a.272.272 0 0 0 0 .544ZM12 21.226H6a.272.272 0 0 0 0 .544h6a.272.272 0 0 0 0-.544ZM21.926 7.767h4c.15 0 .273-.122.273-.272a.273.273 0 0 0-.273-.272h-4a.273.273 0 0 0-.274.272c0 .15.123.272.274.272ZM9.925 19.22h-4a.273.273 0 0 0-.273.272c0 .15.122.272.273.272h4c.15 0 .273-.122.273-.272a.273.273 0 0 0-.273-.272ZM15.834 9.642a2.158 2.158 0 0 0-2.155 2.156c0 1.188.967 2.155 2.155 2.155a2.158 2.158 0 0 0 2.156-2.155 2.158 2.158 0 0 0-2.156-2.156Zm0 .55a1.605 1.605 0 1 1 0 3.212 1.605 1.605 0 1 1 0-3.213ZM22.294 10.29c-.807 0-1.464.656-1.464 1.464 0 .807.657 1.465 1.464 1.465.808 0 1.465-.658 1.465-1.465 0-.808-.657-1.465-1.465-1.465Zm0 .547a.916.916 0 1 1 0 1.834.916.916 0 1 1 0-1.834ZM9.392 10.29c-.807 0-1.464.656-1.464 1.464 0 .807.657 1.465 1.464 1.465.808 0 1.465-.658 1.465-1.465 0-.808-.657-1.465-1.465-1.465Zm0 .547a.916.916 0 1 1 0 1.834.916.916 0 1 1 0-1.834ZM12.005 18.124a.275.275 0 0 0 .272.295h7.116a.275.275 0 0 0 .271-.295 3.844 3.844 0 0 0-3.83-3.543 3.844 3.844 0 0 0-3.829 3.543Zm7.08-.252a3.3 3.3 0 0 0-3.25-2.745 3.3 3.3 0 0 0-3.25 2.745h6.5ZM19.77 15.752c-.006.076.02.15.071.207a.275.275 0 0 0 .2.087h4.506a.275.275 0 0 0 .2-.087.278.278 0 0 0 .072-.207 2.535 2.535 0 0 0-2.525-2.336 2.535 2.535 0 0 0-2.525 2.336Zm4.46-.252a1.99 1.99 0 0 0-3.872 0h3.873ZM6.867 15.752c-.005.076.021.15.072.207a.275.275 0 0 0 .2.087h4.506a.275.275 0 0 0 .2-.087.278.278 0 0 0 .072-.207 2.535 2.535 0 0 0-2.525-2.336 2.535 2.535 0 0 0-2.525 2.336Zm4.461-.252a1.99 1.99 0 0 0-3.872 0h3.872Z" fill="#bdb6b6" class="fill-000000"></path></svg>